<?xml version="1.0" encoding="UTF-8"?><!DOCTYPE svg PUBLIC "-//W3C//DTD SVG 1.1//EN" "http://www.w3.org/Graphics/SVG/1.1/DTD/svg11.dtd"><svg xmlns="http://www.w3.org/2000/svg" xmlns:xlink="http://www.w3.org/1999/xlink"><symbol id="icon-detective" viewBox="0 0 31 26">
<path d="M15.7697 8.18542C15.443 8.18542 15.1777 8.45125 15.1777 8.77924C15.1777 9.107 15.443 9.37306 15.7697 9.37306C16.0964 9.37306 16.3617 9.107 16.3617 8.77924C16.3617 8.45125 16.0964 8.18542 15.7697 8.18542Z" fill="#00B2FF"/>
<path d="M29.148 11.7484H26.8446C25.6304 8.27037 23.8686 2.17193 20.6771 0.445918C19.0809 -0.416274 17.5721 0.185892 17.0046 1.40924C16.7632 1.9293 16.2811 2.20278 15.7696 2.20278C15.2511 2.20278 14.7729 1.92327 14.5345 1.40971C13.9872 0.228109 12.5144 -0.429264 10.9742 0.32066C7.73154 1.9003 5.91819 8.24415 4.69448 11.7484H2.39113C1.40999 11.7484 0.615234 12.5454 0.615234 13.5298C0.615234 14.5119 1.41184 15.3113 2.39113 15.3113H29.148C30.1291 15.3113 30.9239 14.514 30.9239 13.5298C30.9239 12.5475 30.1273 11.7484 29.148 11.7484ZM6.77399 9.3731H13.4017C13.7287 9.3731 13.9937 9.10704 13.9937 8.77928C13.9937 8.45129 13.7287 8.18547 13.4017 8.18547H7.18791C8.97236 3.24079 10.6393 1.80404 11.4912 1.38906C12.4206 0.936744 13.1855 1.3153 13.4611 1.91051C13.8954 2.84623 14.7937 3.39041 15.7696 3.39041C16.7477 3.39041 17.6449 2.84414 18.078 1.91051C18.3617 1.29837 19.1306 0.959476 20.1154 1.49136C20.9712 1.95435 22.6331 3.43889 24.351 8.18547H18.1374C17.8105 8.18547 17.5455 8.45129 17.5455 8.77928C17.5455 9.10727 17.8105 9.3731 18.1374 9.3731H24.7654C25.0646 10.2388 25.3754 11.132 25.5904 11.7484H5.94894C6.1633 11.1337 6.47338 10.2425 6.77399 9.3731ZM29.148 14.1236H2.39113C2.06463 14.1236 1.79917 13.8571 1.79917 13.5298C1.79917 13.2018 2.06416 12.936 2.39113 12.936H29.148C29.4745 12.936 29.74 13.2023 29.74 13.5298C29.74 13.8576 29.4747 14.1236 29.148 14.1236Z" fill="#00B2FF"/>
<path d="M14.5859 17.6866H5.11443C4.78746 17.6866 4.52246 17.9525 4.52246 18.2804V20.6557C4.52246 23.6025 6.91252 26.0001 9.85015 26.0001C12.076 26.0001 14.0462 24.6266 14.8298 22.5575C15.425 22.2852 16.1146 22.2852 16.7098 22.5575C17.4935 24.6266 19.4636 25.9998 21.6895 25.9998C24.6271 25.9998 27.0172 23.6025 27.0172 20.6555V18.2802C27.0172 17.9522 26.7522 17.6864 26.4252 17.6864H16.9537C16.6268 17.6864 16.3618 17.9522 16.3618 18.2802V18.874H15.1778V18.2802C15.1778 17.9525 14.9129 17.6866 14.5859 17.6866ZM9.85015 24.8124C7.5653 24.8124 5.70639 22.9477 5.70639 20.6557V18.8743H13.9939V20.6557C13.9939 22.9537 12.1449 24.8124 9.85015 24.8124ZM17.5457 18.8743H25.8332V20.6557C25.8332 22.9477 23.9743 24.8124 21.6895 24.8124C19.3889 24.8124 17.5457 22.9482 17.5457 20.6557V18.8743ZM16.3618 20.0619V20.6557C16.3618 20.8455 16.3726 21.0345 16.3923 21.2222C15.9809 21.1468 15.5587 21.1468 15.1473 21.2222C15.167 21.0345 15.1778 20.8455 15.1778 20.6557V20.0619H16.3618Z" fill="#00B2FF"/>
<path d="M9.84997 22.437C8.87068 22.437 8.07407 21.6377 8.07407 20.6556C8.07407 20.3276 7.80907 20.0618 7.4821 20.0618C7.15513 20.0618 6.89014 20.3276 6.89014 20.6556C6.89014 22.2925 8.2179 23.6247 9.84997 23.6247C10.1769 23.6247 10.4419 23.3586 10.4419 23.0308C10.4419 22.7029 10.1769 22.437 9.84997 22.437Z" fill="#00B2FF"/>
<path d="M21.6896 23.6247C23.3217 23.6247 24.6495 22.2925 24.6495 20.6556C24.6495 20.3276 24.3845 20.0618 24.0575 20.0618C23.7305 20.0618 23.4655 20.3276 23.4655 20.6556C23.4655 21.6377 22.6689 22.437 21.6896 22.437C21.3627 22.437 21.0977 22.7029 21.0977 23.0308C21.0977 23.3586 21.3627 23.6247 21.6896 23.6247Z" fill="#00B2FF"/>
</symbol><symbol id="icon-email" viewBox="0 0 19 14">
<path d="M16.6805 0H2.3234C1.0418 0 0 1.0087 0 2.24959V11.7504C0 12.9913 1.0418 14 2.3234 14H16.6766C17.9582 14 19 12.9913 19 11.7504V2.2534C19.0039 1.01251 17.9621 0 16.6805 0ZM17.9425 11.7504C17.9425 12.4241 17.3764 12.9723 16.6805 12.9723H2.3234C1.62756 12.9723 1.06145 12.4241 1.06145 11.7504V2.2534C1.06145 1.57966 1.62756 1.03154 2.3234 1.03154H16.6766C17.3724 1.03154 17.9385 1.57966 17.9385 2.2534V11.7504H17.9425Z" fill="#00B2FF"/>
<path d="M11.9827 6.88195L16.6295 2.84715C16.8457 2.65683 16.8654 2.33328 16.6688 2.12012C16.4723 1.91077 16.1381 1.89174 15.9179 2.08206L9.50992 7.65085L8.25977 6.56982C8.25584 6.56602 8.2519 6.56221 8.2519 6.5584C8.22439 6.53176 8.19687 6.50892 8.16542 6.48608L3.07831 2.07825C2.85816 1.88793 2.524 1.90696 2.32743 2.12012C2.13087 2.33328 2.15052 2.65683 2.37068 2.84715L7.07251 6.91621L2.39033 11.1604C2.17804 11.3545 2.16625 11.678 2.36674 11.8874C2.47289 11.994 2.61442 12.0511 2.75594 12.0511C2.88568 12.0511 3.01541 12.0054 3.11762 11.914L7.87057 7.60898L9.16004 8.72426C9.26225 8.8118 9.38805 8.85367 9.51385 8.85367C9.63965 8.85367 9.76939 8.808 9.86767 8.72045L11.1925 7.57091L15.9179 11.9178C16.0202 12.013 16.1538 12.0587 16.2836 12.0587C16.4251 12.0587 16.5627 12.0054 16.6688 11.8988C16.8693 11.6933 16.8615 11.3659 16.6492 11.1718L11.9827 6.88195Z" fill="#00B2FF"/>
</symbol><symbol id="icon-facebok" viewBox="0 0 27 27">
<path fill-rule="evenodd" clip-rule="evenodd" d="M27 13.5C27 6.04462 20.9562 0 13.5 0C6.04379 0 0 6.04462 0 13.5C0 20.9562 6.04369 27 13.5 27C20.9562 27 27 20.9563 27 13.5ZM16.8836 9.29395H15.1437C14.6754 9.29395 14.3464 9.69053 14.3464 10.185V10.9604H16.8312L16.4288 13.4772H14.3455V20.2238H11.8025V13.4772H10.115V10.9604H11.8025V9.677H11.8075C11.8523 8.21392 12.3602 6.82092 14.8383 6.73315V6.72388H16.8836V9.29395Z" fill="#CDCDCD"/>
</symbol><symbol id="icon-hired" viewBox="0 0 32 32">
<path d="M28.5547 25.5023C28.8947 25.0283 29.0958 24.4466 29.0958 23.8181V20.0625C29.0958 19.7173 28.8184 19.4375 28.4763 19.4375H25.7076C24.4276 19.4375 23.3863 20.488 23.3863 21.7793V23.8181C23.3863 24.4462 23.5872 25.0274 23.9268 25.5013C23.5033 25.5706 23.0958 25.7075 22.7158 25.9079C21.8551 24.6121 20.4448 23.7185 18.8243 23.5678C18.818 23.5659 18.8115 23.5646 18.8052 23.5631C19.385 22.9099 19.7384 22.0481 19.7384 21.1044V16C19.7384 15.6548 19.461 15.375 19.1189 15.375H15.3558C13.7389 15.375 12.4235 16.7021 12.4235 18.3333V21.1043C12.4235 22.0481 12.7769 22.9098 13.3567 23.563C13.3503 23.5646 13.3439 23.5659 13.3376 23.5677C11.7168 23.7184 10.3066 24.6122 9.44586 25.9081C9.06573 25.7078 8.65821 25.5708 8.23489 25.5015C8.57451 25.0276 8.77554 24.4463 8.77554 23.8181V20.0625C8.77554 19.7173 8.49812 19.4375 8.15602 19.4375H5.38726C4.10733 19.4375 3.06603 20.488 3.06603 21.7793V23.8181C3.06603 24.4466 3.26719 25.0283 3.60719 25.5023C1.68958 25.8185 0.221191 27.5009 0.221191 29.5235V31.375C0.221191 31.7202 0.498613 32 0.840713 32H31.3212C31.6633 32 31.9407 31.7202 31.9407 31.375V29.5235C31.9407 27.5009 30.4723 25.8185 28.5547 25.5023ZM4.30508 21.7793C4.30508 21.1773 4.79053 20.6875 5.38726 20.6875H7.5365V21.4487C7.5365 21.8219 7.23554 22.1256 6.86562 22.1256H4.30508V21.7793ZM4.30508 23.3755H6.86562C7.10166 23.3755 7.32766 23.3318 7.5365 23.2524V23.8181C7.5365 24.7169 6.81172 25.4481 5.92079 25.4481C5.02985 25.4481 4.30508 24.7169 4.30508 23.8181V23.3755ZM6.32019 26.6981L5.92079 27.1011L5.52138 26.6981H6.32019ZM8.55698 28.8585V30.75H1.46023V29.5235C1.46023 28.1216 2.47767 26.9555 3.80655 26.7359L5.48272 28.4269C5.59895 28.5441 5.75649 28.61 5.92079 28.61C6.08509 28.61 6.24263 28.5441 6.35885 28.4269L8.03552 26.7353C8.33166 26.784 8.61645 26.8803 8.88185 27.0211C8.67196 27.594 8.55698 28.213 8.55698 28.8585ZM16.081 23.5442C14.7475 23.5442 13.6626 22.4497 13.6626 21.1044V20.2783H17.3651C17.7756 20.2783 18.1622 20.1725 18.4994 19.9866V21.1044C18.4994 22.4497 17.4145 23.5442 16.081 23.5442ZM17.1609 24.7941L16.0809 25.8836L15.001 24.7941H17.1609ZM13.6625 18.3333H13.6625C13.6625 17.3913 14.4221 16.625 15.3558 16.625H18.4994V17.884C18.4994 18.515 17.9905 19.0284 17.365 19.0284H13.6625V18.3333ZM22.3658 30.75H21.161H11.0009H9.79608V29.5H13.83C14.1721 29.5 14.4496 29.2202 14.4496 28.875C14.4496 28.5298 14.1721 28.25 13.83 28.25H9.84137C10.1069 26.4737 11.5163 25.0715 13.2858 24.8316L15.6429 27.2095C15.7639 27.3315 15.9224 27.3925 16.0809 27.3925C16.2395 27.3925 16.398 27.3315 16.519 27.2095L18.876 24.8316C20.8434 25.0983 22.3658 26.8019 22.3658 28.8585V30.75ZM24.6254 21.7793C24.6254 21.1773 25.1108 20.6875 25.7076 20.6875H27.8568V21.4487C27.8568 21.8219 27.5558 22.1256 27.1859 22.1256H24.6254V21.7793ZM24.6254 23.3755H27.1859C27.422 23.3755 27.648 23.3318 27.8568 23.2524V23.8181C27.8568 24.7169 27.132 25.4481 26.2411 25.4481C25.3502 25.4481 24.6254 24.7169 24.6254 23.8181V23.3755ZM26.6405 26.6981L26.2411 27.1011L25.8417 26.6981H26.6405ZM23.6048 30.75V28.8585C23.6048 28.2129 23.4899 27.594 23.2799 27.021C23.5452 26.88 23.8299 26.7838 24.1261 26.7352L25.803 28.4269C25.9192 28.5441 26.0767 28.61 26.241 28.61C26.4053 28.61 26.5629 28.5441 26.6791 28.4269L28.3553 26.7359C29.6841 26.9556 30.7016 28.1216 30.7016 29.5235V30.75H23.6048Z" fill="#00B2FF"/>
<path d="M19.1336 4.08356C18.8917 3.8395 18.4995 3.8395 18.2575 4.08356L15.2175 7.1505L13.9033 5.82469C13.6613 5.58056 13.2691 5.58056 13.0271 5.82462C12.7852 6.06869 12.7852 6.46444 13.0271 6.70856L14.7794 8.47632C14.8956 8.5935 15.0532 8.65938 15.2175 8.65938C15.3818 8.65938 15.5393 8.5935 15.6555 8.47632L19.1336 4.96744C19.3756 4.72337 19.3756 4.32762 19.1336 4.08356Z" fill="#00B2FF"/>
<path d="M18.6144 0.541883C18.3019 0.40132 17.9356 0.542883 17.7962 0.858133C17.6568 1.17338 17.7972 1.54295 18.1097 1.68351C19.9063 2.49182 21.0671 4.29601 21.0671 6.27989C21.0671 9.05339 18.8305 11.3098 16.0813 11.3098C13.3321 11.3098 11.0954 9.05339 11.0954 6.27989C11.0954 4.30626 12.2479 2.50582 14.0315 1.69313C14.3433 1.55107 14.482 1.18082 14.3411 0.866258C14.2003 0.551633 13.8331 0.41182 13.5215 0.553883C11.2951 1.56838 9.85645 3.81595 9.85645 6.27983C9.85638 9.74264 12.6489 12.5598 16.0813 12.5598C19.5137 12.5598 22.3062 9.74264 22.3062 6.27989C22.3062 3.8032 20.857 1.55088 18.6144 0.541883Z" fill="#00B2FF"/>
<path d="M16.1031 0H16.0809C15.7388 0 15.4614 0.279813 15.4614 0.625001C15.4614 0.970189 15.7388 1.25 16.0809 1.25H16.0973C16.0983 1.25 16.0992 1.25 16.1003 1.25C16.4411 1.25 16.7181 0.972126 16.7197 0.627938C16.7213 0.28275 16.4453 0.001625 16.1031 0Z" fill="#00B2FF"/>
<path d="M16.5189 28.433C16.4037 28.3168 16.2439 28.2499 16.0809 28.2499C15.918 28.2499 15.7582 28.3168 15.6429 28.433C15.5277 28.5493 15.4614 28.7105 15.4614 28.8749C15.4614 29.0393 15.5277 29.2005 15.6429 29.3168C15.7582 29.433 15.918 29.4999 16.0809 29.4999C16.2439 29.4999 16.4037 29.433 16.5189 29.3168C16.6341 29.2005 16.7005 29.0393 16.7005 28.8749C16.7005 28.7105 16.6342 28.5493 16.5189 28.433Z" fill="#00B2FF"/>
</symbol><symbol id="icon-ok" viewBox="0 0 27 26">
<path d="M13.8512 10.957C14.8668 10.957 15.6568 10.1213 15.638 9.2113C15.6568 8.3013 14.8857 7.44702 13.87 7.44702C12.892 7.44702 12.0833 8.22702 12.0833 9.19273C12.0833 10.1584 12.8732 10.957 13.8512 10.957Z" fill="#CDCDCD"/>
<path d="M13.701 0C6.44113 0 0.5354 5.8314 0.5354 12.9999C0.5354 20.187 6.44113 25.9999 13.701 25.9999C20.9797 25.9999 26.8667 20.1685 26.8667 12.9999C26.8855 5.8314 20.9797 0 13.701 0ZM13.8891 4.9214C16.2589 4.9214 18.215 6.85282 18.1962 9.21138C18.1962 11.5885 16.2213 13.5014 13.8139 13.4642C11.4441 13.4271 9.54445 11.5142 9.54445 9.19281C9.54445 6.83425 11.4817 4.9214 13.8891 4.9214ZM18.7228 14.9499C18.7228 14.9871 18.704 15.0056 18.704 15.0428C18.6475 15.4142 18.4595 15.7114 18.1397 15.9156C17.9328 16.0456 17.7071 16.1756 17.4814 16.2871C16.9172 16.5656 16.3153 16.7885 15.6947 16.9371C15.6195 16.9556 15.6195 16.9556 15.6759 17.0113C16.0144 17.3456 16.3718 17.6985 16.7103 18.0328C17.1429 18.4599 17.5943 18.9056 18.0269 19.3328C18.6475 19.9456 18.4783 20.967 17.6883 21.3385C17.5567 21.4128 17.4062 21.4313 17.2558 21.4685C17.1805 21.4685 17.0865 21.4685 17.0112 21.4685C16.9924 21.4685 16.9736 21.4685 16.9736 21.4499C16.6727 21.4128 16.4282 21.2642 16.2025 21.0599C15.4502 20.317 14.679 19.5556 13.9267 18.8128C13.8703 18.7571 13.8703 18.7571 13.8139 18.8128C13.0427 19.5742 12.2904 20.317 11.5193 21.0785C11.3876 21.2085 11.256 21.3013 11.0867 21.3756C10.9739 21.4313 10.8422 21.4499 10.7294 21.4685C10.6541 21.4685 10.5789 21.4685 10.4849 21.4685C10.4472 21.4685 10.4284 21.4499 10.3908 21.4499C9.883 21.357 9.54445 21.0785 9.39399 20.5956C9.24352 20.1128 9.35637 19.6856 9.71373 19.3328C10.0335 19.017 10.3344 18.7199 10.6541 18.4042C11.1243 17.9399 11.5945 17.4756 12.0459 17.0299C12.1023 16.9742 12.1023 16.9742 12.0271 16.9556C12.0083 16.9556 11.9707 16.9371 11.9519 16.9371C11.1055 16.7328 10.3344 16.3985 9.60088 15.9528C9.16829 15.6742 8.9614 15.2656 9.01783 14.7642C9.11187 13.8356 10.1651 13.3342 10.9551 13.8356C11.1055 13.9285 11.2372 14.0028 11.4064 14.0771C12.2716 14.5042 13.1932 14.6899 14.1524 14.6342C14.6226 14.6156 15.0928 14.5228 15.563 14.3742C16.0144 14.2256 16.4094 14.0214 16.8232 13.7985C17.5003 13.4085 18.3842 13.7242 18.6475 14.4485C18.6852 14.5599 18.704 14.6528 18.7228 14.7642C18.7228 14.8199 18.7228 14.8756 18.7228 14.9499Z" fill="#CDCDCD"/>
</symbol><symbol id="icon-phone" viewBox="0 0 18 18">
<path d="M14.2333 11.1503C13.8642 10.7666 13.4191 10.5615 12.9473 10.5615C12.4794 10.5615 12.0304 10.7628 11.6462 11.1465L10.4439 12.3432C10.345 12.2901 10.2461 12.2407 10.151 12.1913C10.014 12.1229 9.88467 12.0583 9.77433 11.9899C8.64819 11.2757 7.62476 10.3449 6.64319 9.14066C6.16762 8.54041 5.84804 8.03514 5.61596 7.52227C5.92793 7.23735 6.21708 6.94102 6.49861 6.6561C6.60514 6.54972 6.71167 6.43955 6.8182 6.33318C7.61715 5.53538 7.61715 4.50205 6.8182 3.70425L5.77955 2.66712C5.66161 2.54935 5.53987 2.42778 5.42573 2.30621C5.19746 2.07067 4.95777 1.82754 4.71047 1.59959C4.34143 1.23489 3.9001 1.04114 3.43595 1.04114C2.97179 1.04114 2.52286 1.23489 2.1424 1.59959C2.1386 1.60339 2.1386 1.60339 2.13479 1.60719L0.841243 2.91026C0.35426 3.39653 0.076528 3.98918 0.0156552 4.6768C-0.0756541 5.78612 0.251537 6.81945 0.502638 7.49568C1.11898 9.15586 2.03968 10.6945 3.41312 12.3432C5.07952 14.3301 7.08452 15.8991 9.37486 17.0046C10.2499 17.4187 11.4179 17.9088 12.7229 17.9924C12.8028 17.9962 12.8865 18 12.9626 18C13.8414 18 14.5795 17.6847 15.1578 17.0578C15.1616 17.0502 15.1692 17.0464 15.173 17.0388C15.3708 16.7995 15.5991 16.5829 15.8388 16.3512C16.0024 16.1954 16.1698 16.0321 16.3334 15.8611C16.71 15.4698 16.9079 15.014 16.9079 14.5467C16.9079 14.0756 16.7062 13.6235 16.322 13.2436L14.2333 11.1503ZM15.5953 15.1507C15.5915 15.1507 15.5915 15.1545 15.5953 15.1507C15.4469 15.3103 15.2947 15.4546 15.1311 15.6142C14.8838 15.8497 14.6327 16.0967 14.3969 16.374C14.0126 16.7843 13.5599 16.978 12.9664 16.978C12.9093 16.978 12.8484 16.978 12.7913 16.9742C11.6614 16.9021 10.6113 16.4614 9.82379 16.0853C7.67042 15.0443 5.77955 13.5665 4.20827 11.6936C2.91092 10.1322 2.04348 8.68857 1.46899 7.13857C1.11517 6.19262 0.985816 5.4556 1.04288 4.76038C1.08093 4.3159 1.25214 3.94739 1.56791 3.63207L2.86527 2.33661C3.05169 2.16185 3.24953 2.06687 3.44356 2.06687C3.68324 2.06687 3.87728 2.21124 3.99902 2.33281C4.00283 2.33661 4.00663 2.3404 4.01044 2.3442C4.24251 2.56075 4.46318 2.78489 4.69526 3.02423C4.8132 3.1458 4.93494 3.26737 5.05669 3.39273L6.09533 4.42987C6.49861 4.83256 6.49861 5.20487 6.09533 5.60757C5.985 5.71774 5.87847 5.82791 5.76814 5.93428C5.44856 6.261 5.14419 6.56492 4.8132 6.86124C4.80559 6.86884 4.79798 6.87264 4.79417 6.88024C4.46698 7.20695 4.52786 7.52607 4.59634 7.74262C4.60014 7.75401 4.60395 7.76541 4.60775 7.77681C4.87787 8.43024 5.25833 9.04568 5.83662 9.7789L5.84043 9.78269C6.89048 11.0744 7.99761 12.0811 9.21887 12.8523C9.37486 12.9511 9.53465 13.0309 9.68683 13.1068C9.82379 13.1752 9.95315 13.2398 10.0635 13.3082C10.0787 13.3158 10.0939 13.3272 10.1091 13.3348C10.2385 13.3994 10.3602 13.4298 10.4858 13.4298C10.8016 13.4298 10.9994 13.2322 11.0641 13.1676L12.3652 11.8684C12.4946 11.7392 12.7 11.5834 12.9397 11.5834C13.1756 11.5834 13.3696 11.7316 13.4876 11.8608C13.4914 11.8646 13.4914 11.8646 13.4952 11.8684L15.5915 13.9616C15.9834 14.3491 15.9834 14.748 15.5953 15.1507Z" fill="#00B2FF"/>
<path d="M9.72843 4.28169C10.7252 4.44885 11.6307 4.91992 12.3536 5.64174C13.0764 6.36355 13.5444 7.26772 13.7156 8.26307C13.7575 8.5138 13.9743 8.68856 14.2216 8.68856C14.252 8.68856 14.2787 8.68476 14.3091 8.68096C14.5907 8.63537 14.7771 8.36944 14.7314 8.08831C14.526 6.88402 13.9553 5.7861 13.0841 4.91613C12.2128 4.04615 11.1133 3.4763 9.90725 3.27115C9.62571 3.22556 9.3632 3.41171 9.31374 3.68904C9.26428 3.96637 9.4469 4.2361 9.72843 4.28169Z" fill="#00B2FF"/>
<path d="M17.9921 7.94018C17.6535 5.95709 16.7176 4.15255 15.2795 2.71652C13.8414 1.28049 12.0342 0.345932 10.0482 0.00781895C9.77051 -0.0415684 9.50799 0.148383 9.45853 0.425712C9.41288 0.70684 9.5993 0.968972 9.88084 1.01836C11.6538 1.31848 13.2707 2.15807 14.5566 3.43834C15.8426 4.72241 16.6796 6.33699 16.9801 8.10734C17.022 8.35808 17.2388 8.53283 17.4861 8.53283C17.5166 8.53283 17.5432 8.52903 17.5736 8.52523C17.8514 8.48344 18.0416 8.21751 17.9921 7.94018Z" fill="#00B2FF"/>
</symbol><symbol id="icon-polygon" viewBox="0 0 364 670">
<path opacity="0.2" d="M440.264 414.5L162.014 575.148L162.014 253.852L440.264 414.5Z" stroke="white"/>
<path opacity="0.2" d="M87.9084 160.136L262.25 59.48L262.25 260.793L87.9084 160.136Z" stroke="white"/>
</symbol><symbol id="icon-price" viewBox="0 0 33 32">
<path d="M32.6111 2.61363L31.8339 1.83982L32.6108 1.06715C32.8563 0.823046 32.8563 0.427236 32.6108 0.183075C32.3653 -0.0610248 31.9675 -0.0610248 31.7219 0.183075L30.9455 0.955253L30.1798 0.192763C30.0619 0.0754958 29.9021 0.0094858 29.7355 0.0094233L19.0977 0.00354741C19.0971 0.00354741 19.0965 0.00354741 19.0959 0.00354741C18.2559 0.00354741 17.4662 0.328846 16.8722 0.919623L11.5638 6.19917C11.3184 6.44327 11.3184 6.83908 11.5638 7.08324C11.8093 7.32734 12.2071 7.32734 12.4527 7.08324L17.7611 1.80369C18.1177 1.44902 18.5917 1.2538 19.0959 1.2538C19.0963 1.2538 19.0967 1.2538 19.097 1.2538L29.4744 1.25955L30.0568 1.83939L27.7247 4.15874C26.7358 3.56965 25.4321 3.6981 24.5809 4.54461C24.0946 5.02831 23.8268 5.67134 23.8268 6.35532C23.8268 7.0393 24.0946 7.68233 24.5809 8.16603C25.0828 8.66523 25.7422 8.91483 26.4015 8.91483C27.0608 8.91483 27.7201 8.66523 28.2221 8.16603C29.072 7.32071 29.202 6.02664 28.6128 5.04362L30.9452 2.72396L31.5378 3.31411L31.5321 13.6211C31.5317 14.1222 31.3354 14.5933 30.9791 14.9477L15.642 30.2013C15.2855 30.5559 14.8114 30.7512 14.3072 30.7512C13.803 30.7512 13.3289 30.5559 12.9724 30.2013L2.42522 19.7114C2.0686 19.3568 1.87225 18.8853 1.87225 18.3838C1.87225 17.8824 2.0686 17.4109 2.42522 17.0562L9.20017 10.3181C9.4456 10.074 9.4456 9.67819 9.20017 9.43403C8.95468 9.18993 8.55683 9.18993 8.31127 9.43403L1.53632 16.1722C0.942374 16.7629 0.615234 17.5484 0.615234 18.3838C0.615234 19.2193 0.942374 20.0048 1.53632 20.5955L12.0835 31.0854C12.6966 31.6951 13.5018 32 14.3072 32C15.1126 32 15.9178 31.6951 16.5309 31.0854L31.8679 15.8316C32.4614 15.2413 32.7885 14.4565 32.789 13.6217L32.7949 3.0557C32.795 2.88992 32.7289 2.7309 32.6111 2.61363ZM27.3332 7.2819C27.0843 7.52943 26.7534 7.66577 26.4015 7.66577C26.0495 7.66577 25.7187 7.52943 25.4698 7.2819C24.956 6.77094 24.956 5.93951 25.4698 5.42855C25.7267 5.17302 26.064 5.04531 26.4015 5.04531C26.5286 5.04531 26.6556 5.0635 26.7785 5.09975L26.053 5.82124C25.8076 6.06534 25.8076 6.46115 26.053 6.70531C26.1758 6.82739 26.3366 6.8884 26.4974 6.8884C26.6583 6.8884 26.8191 6.82739 26.9419 6.70531L27.6653 5.98582C27.7959 6.43083 27.6854 6.93165 27.3332 7.2819Z" fill="#00B2FF"/>
</symbol><symbol id="icon-stopwatch" viewBox="0 0 3 3">
<path d="M1.30769 2.09735C0.921531 2.09735 0.608064 1.78222 0.608064 1.39401C0.608064 1.0058 0.921531 0.690674 1.30769 0.690674C1.69386 0.690674 2.00732 1.0058 2.00732 1.39401C2.00732 1.78222 1.69386 2.09735 1.30769 2.09735Z" fill="#00B2FF"/>
</symbol><symbol id="icon-vk" viewBox="0 0 27 26">
<path d="M19.475 15.1271C18.3662 14.1029 18.287 14.1029 19.2374 12.9211C20.4254 11.4243 22.0095 9.53349 20.5838 9.53349H17.9701C17.4949 9.53349 17.4157 9.84862 17.2573 10.2425C16.6237 11.7394 15.3565 13.709 14.8812 13.3938C14.406 13.0787 14.6436 11.897 14.6436 10.0062C14.7228 9.76984 14.6436 9.53349 14.4852 9.37592C14.3268 9.21836 14.0892 9.06079 13.8516 9.06079C13.4556 8.98201 13.0596 8.90323 12.6636 8.90323C11.1587 8.90323 10.1291 9.53349 10.6835 9.61227C11.7131 9.76984 11.6339 11.9758 11.3963 12.9211C11.0003 14.5756 9.41624 11.6606 8.70342 10.1638C8.62421 9.76984 8.3074 9.53349 7.91139 9.53349H5.85212C5.53531 9.53349 5.2977 9.61227 5.2977 9.84862C5.2977 10.2425 7.27777 14.1029 9.09943 16.0725C10.9211 17.9632 12.7428 17.8057 14.01 17.8057C14.1684 17.8057 14.3268 17.7269 14.406 17.6481C14.4852 17.5693 14.5644 17.4118 14.5644 17.2542C14.5644 15.9937 15.0396 15.3634 15.9109 16.23C16.8613 17.1754 17.0989 17.8057 18.287 17.8057H20.4254C20.9799 17.8057 21.1383 17.6481 21.1383 17.4118C21.2175 16.8603 20.267 15.8361 19.475 15.1271ZM13.8516 0.000789162C21.2175 0.158354 27.0785 6.06705 26.9993 13.2363C26.9201 20.4055 20.8214 26.0778 13.4556 25.9991C6.01052 25.9203 0.0703125 20.1691 0.0703125 12.9999C0.149515 5.75192 6.32733 -0.0779935 13.8516 0.000789162Z" fill="#CDCDCD"/>
</symbol><symbol id="logo-text" viewBox="0 0 134 45">
<path d="M8.93555 18.3369C8.93555 17.6126 8.74837 17.0674 8.37402 16.7012C8.00781 16.3268 7.33643 15.9403 6.35986 15.5415C4.57764 14.866 3.2959 14.0767 2.51465 13.1733C1.7334 12.2619 1.34277 11.1877 1.34277 9.95068C1.34277 8.45329 1.87174 7.25293 2.92969 6.34961C3.99577 5.43815 5.34668 4.98242 6.98242 4.98242C8.07292 4.98242 9.04541 5.21436 9.8999 5.67822C10.7544 6.13395 11.4095 6.78092 11.8652 7.61914C12.3291 8.45736 12.561 9.40951 12.561 10.4756H8.98438C8.98438 9.64551 8.80534 9.01481 8.44727 8.5835C8.09733 8.14404 7.5887 7.92432 6.92139 7.92432C6.29476 7.92432 5.80648 8.11149 5.45654 8.48584C5.10661 8.85205 4.93164 9.34847 4.93164 9.9751C4.93164 10.4634 5.12695 10.9069 5.51758 11.3057C5.9082 11.6963 6.59993 12.1032 7.59277 12.5264C9.32617 13.153 10.5835 13.922 11.3647 14.8335C12.1541 15.745 12.5488 16.9046 12.5488 18.3125C12.5488 19.8587 12.0565 21.0672 11.0718 21.938C10.0871 22.8088 8.74837 23.2441 7.05566 23.2441C5.9082 23.2441 4.86247 23.0081 3.91846 22.5361C2.97445 22.0641 2.23389 21.3887 1.69678 20.5098C1.16781 19.6309 0.90332 18.5933 0.90332 17.397H4.50439C4.50439 18.4224 4.70378 19.167 5.10254 19.6309C5.5013 20.0947 6.15234 20.3267 7.05566 20.3267C8.30892 20.3267 8.93555 19.6634 8.93555 18.3369ZM18.0054 9.79199L18.103 11.0127C18.8761 10.0361 19.8975 9.54785 21.167 9.54785C22.4854 9.54785 23.4172 10.1419 23.9624 11.3301C24.7192 10.1419 25.7975 9.54785 27.1973 9.54785C29.5085 9.54785 30.6925 11.147 30.7495 14.3452V23H27.2949V14.5649C27.2949 13.8 27.1891 13.2547 26.9775 12.9292C26.766 12.6037 26.4079 12.4409 25.9033 12.4409C25.2604 12.4409 24.7803 12.8356 24.4629 13.625L24.4873 14.04V23H21.0327V14.5894C21.0327 13.8325 20.931 13.2873 20.7275 12.9536C20.5241 12.6118 20.1619 12.4409 19.6411 12.4409C19.047 12.4409 18.575 12.7624 18.2251 13.4053V23H14.7705V9.79199H18.0054ZM39.5874 23C39.4897 22.7965 39.3921 22.4548 39.2944 21.9746C38.6759 22.821 37.8377 23.2441 36.7798 23.2441C35.673 23.2441 34.7534 22.8779 34.021 22.1455C33.2967 21.4131 32.9346 20.465 32.9346 19.3013C32.9346 17.9178 33.374 16.8477 34.2529 16.0908C35.14 15.334 36.4136 14.9474 38.0737 14.9312H39.1235V13.8691C39.1235 13.2751 39.0218 12.856 38.8184 12.6118C38.6149 12.3677 38.3179 12.2456 37.9272 12.2456C37.0646 12.2456 36.6333 12.7502 36.6333 13.7593H33.1787C33.1787 12.5386 33.6344 11.5335 34.5459 10.7441C35.4655 9.94661 36.6252 9.54785 38.0249 9.54785C39.4735 9.54785 40.5924 9.92627 41.3818 10.6831C42.1794 11.4318 42.5781 12.506 42.5781 13.9058V20.1191C42.5944 21.2585 42.7572 22.1496 43.0664 22.7925V23H39.5874ZM37.5488 20.5342C37.9313 20.5342 38.2568 20.4569 38.5254 20.3022C38.7939 20.1476 38.9933 19.9645 39.1235 19.7529V17.0063H38.2935C37.7075 17.0063 37.2437 17.1935 36.9019 17.5679C36.5682 17.9422 36.4014 18.4427 36.4014 19.0693C36.4014 20.0459 36.7839 20.5342 37.5488 20.5342ZM51.5991 13.1245L50.4517 13.0269C49.5076 13.0269 48.8688 13.4419 48.5352 14.272V23H45.0684V9.79199H48.3276L48.4253 11.2202C48.9705 10.1053 49.7233 9.54785 50.6836 9.54785C51.0742 9.54785 51.3916 9.60075 51.6357 9.70654L51.5991 13.1245ZM58.0078 6.54492V9.79199H59.7778V12.3921H58.0078V18.9473C58.0078 19.4681 58.077 19.8262 58.2153 20.0215C58.3618 20.2168 58.6385 20.3145 59.0454 20.3145C59.3791 20.3145 59.6517 20.286 59.8633 20.229L59.8389 22.9146C59.2529 23.1343 58.6182 23.2441 57.9346 23.2441C55.7048 23.2441 54.5776 21.9665 54.5532 19.4111V12.3921H53.0273V9.79199H54.5532V6.54492H58.0078ZM67.6147 23V5.22656H72.3145C74.3896 5.22656 76.0417 5.88574 77.2705 7.2041C78.5075 8.52246 79.1382 10.3291 79.1626 12.624V15.5049C79.1626 17.8405 78.5441 19.6756 77.3071 21.0103C76.0783 22.3368 74.3815 23 72.2168 23H67.6147ZM71.2036 8.21729V20.0215H72.2778C73.4741 20.0215 74.3164 19.7082 74.8047 19.0815C75.293 18.4468 75.5493 17.3563 75.5737 15.8101V12.7217C75.5737 11.0615 75.3418 9.90592 74.8779 9.25488C74.4141 8.5957 73.6247 8.24984 72.5098 8.21729H71.2036ZM86.9141 23.2441C85.14 23.2441 83.7565 22.7152 82.7637 21.6572C81.7708 20.5993 81.2744 19.0856 81.2744 17.1162V16.0664C81.2744 13.9831 81.7301 12.3758 82.6416 11.2446C83.5531 10.1134 84.8592 9.54785 86.5601 9.54785C88.2202 9.54785 89.4694 10.0809 90.3076 11.147C91.1458 12.2049 91.5731 13.7756 91.5894 15.8589V17.5557H84.7168C84.7656 18.5322 84.9813 19.2484 85.3638 19.7041C85.7463 20.1517 86.3363 20.3755 87.1338 20.3755C88.2894 20.3755 89.2537 19.9808 90.0269 19.1914L91.3818 21.2788C90.9587 21.8647 90.3442 22.3408 89.5386 22.707C88.7329 23.0651 87.8581 23.2441 86.9141 23.2441ZM84.7412 15.1387H88.1958V14.8213C88.1795 14.0319 88.0493 13.4338 87.8052 13.0269C87.561 12.62 87.1379 12.4165 86.5356 12.4165C85.9334 12.4165 85.494 12.6322 85.2173 13.0635C84.9487 13.4948 84.79 14.1865 84.7412 15.1387ZM97.7051 18.1172L99.3774 9.79199H102.979L99.353 23H96.0571L92.4194 9.79199H96.0327L97.7051 18.1172ZM108.228 23H104.761V9.79199H108.228V23ZM104.602 6.37402C104.602 5.83691 104.773 5.39746 105.115 5.05566C105.457 4.71387 105.912 4.54297 106.482 4.54297C107.052 4.54297 107.507 4.71387 107.849 5.05566C108.191 5.39746 108.362 5.83691 108.362 6.37402C108.362 6.90299 108.191 7.34245 107.849 7.69238C107.515 8.04232 107.06 8.21729 106.482 8.21729C105.904 8.21729 105.444 8.04232 105.103 7.69238C104.769 7.34245 104.602 6.90299 104.602 6.37402ZM115.674 20.3755C116.675 20.3755 117.183 19.7244 117.2 18.4224H120.447C120.431 19.8628 119.987 21.0265 119.116 21.9136C118.245 22.8006 117.122 23.2441 115.747 23.2441C114.046 23.2441 112.748 22.7152 111.853 21.6572C110.958 20.5993 110.502 19.0409 110.486 16.9819V15.9321C110.486 13.8569 110.925 12.2741 111.804 11.1836C112.691 10.0931 113.997 9.54785 115.723 9.54785C117.179 9.54785 118.327 9.99951 119.165 10.9028C120.003 11.798 120.431 13.0716 120.447 14.7236H117.2C117.192 13.9831 117.069 13.4134 116.833 13.0146C116.597 12.6159 116.207 12.4165 115.662 12.4165C115.059 12.4165 114.628 12.6322 114.368 13.0635C114.107 13.4867 113.969 14.3127 113.953 15.5415V16.8843C113.953 17.9585 114.006 18.7113 114.111 19.1426C114.217 19.5658 114.392 19.8791 114.636 20.0825C114.88 20.2778 115.226 20.3755 115.674 20.3755ZM127.734 23.2441C125.96 23.2441 124.577 22.7152 123.584 21.6572C122.591 20.5993 122.095 19.0856 122.095 17.1162V16.0664C122.095 13.9831 122.55 12.3758 123.462 11.2446C124.373 10.1134 125.68 9.54785 127.38 9.54785C129.041 9.54785 130.29 10.0809 131.128 11.147C131.966 12.2049 132.393 13.7756 132.41 15.8589V17.5557H125.537C125.586 18.5322 125.802 19.2484 126.184 19.7041C126.567 20.1517 127.157 20.3755 127.954 20.3755C129.11 20.3755 130.074 19.9808 130.847 19.1914L132.202 21.2788C131.779 21.8647 131.165 22.3408 130.359 22.707C129.553 23.0651 128.678 23.2441 127.734 23.2441ZM125.562 15.1387H129.016V14.8213C129 14.0319 128.87 13.4338 128.625 13.0269C128.381 12.62 127.958 12.4165 127.356 12.4165C126.754 12.4165 126.314 12.6322 126.038 13.0635C125.769 13.4948 125.61 14.1865 125.562 15.1387Z" fill="white"/>
<path d="M2.94727 38.9609L4.23633 34.6602H5.75391L3.23438 41.9609C2.84766 43.0273 2.19141 43.5605 1.26562 43.5605C1.05859 43.5605 0.830078 43.5254 0.580078 43.4551V42.3535L0.849609 42.3711C1.20898 42.3711 1.47852 42.3047 1.6582 42.1719C1.8418 42.043 1.98633 41.8242 2.0918 41.5156L2.29688 40.9707L0.0703125 34.6602H1.60547L2.94727 38.9609ZM10.3418 39.248L12.2168 34.6602H13.998V41H12.5742V36.8047L10.8281 41H9.86133L8.10938 36.7812V41H6.68555V34.6602H8.47852L10.3418 39.248ZM20.9707 41H19.5469V38.4395H17.0801V41H15.6562V34.6602H17.0801V37.3027H19.5469V34.6602H20.9707V41ZM24.0234 36.6758H25.418C25.9375 36.6758 26.3906 36.7656 26.7773 36.9453C27.1641 37.125 27.457 37.377 27.6562 37.7012C27.8594 38.0254 27.9609 38.4023 27.9609 38.832C27.9609 39.4844 27.7305 40.0078 27.2695 40.4023C26.8086 40.7969 26.1953 40.9961 25.4297 41H22.5996V34.6602H24.0234V36.6758ZM30.4395 41H29.0156V34.6602H30.4395V41ZM24.0234 37.8184V39.8633H25.4121C25.7598 39.8633 26.0332 39.7773 26.2324 39.6055C26.4355 39.4297 26.5371 39.1816 26.5371 38.8613C26.5371 38.541 26.4375 38.2891 26.2383 38.1055C26.043 37.918 25.7773 37.8223 25.4414 37.8184H24.0234ZM34.9395 41.1172C34.0371 41.1172 33.3047 40.834 32.7422 40.2676C32.1836 39.6973 31.9043 38.9395 31.9043 37.9941V37.8184C31.9043 37.1855 32.0254 36.6211 32.2676 36.125C32.5137 35.625 32.8574 35.2363 33.2988 34.959C33.7402 34.6816 34.2324 34.543 34.7754 34.543C35.6387 34.543 36.3047 34.8184 36.7734 35.3691C37.2461 35.9199 37.4824 36.6992 37.4824 37.707V38.2812H33.3398C33.3828 38.8047 33.5566 39.2188 33.8613 39.5234C34.1699 39.8281 34.5566 39.9805 35.0215 39.9805C35.6738 39.9805 36.2051 39.7168 36.6152 39.1895L37.3828 39.9219C37.1289 40.3008 36.7891 40.5957 36.3633 40.8066C35.9414 41.0137 35.4668 41.1172 34.9395 41.1172ZM34.7695 35.6855C34.3789 35.6855 34.0625 35.8223 33.8203 36.0957C33.582 36.3691 33.4297 36.75 33.3633 37.2383H36.0762V37.1328C36.0449 36.6562 35.918 36.2969 35.6953 36.0547C35.4727 35.8086 35.1641 35.6855 34.7695 35.6855ZM46.5703 35.791H44.5137V41H43.0898V35.791H41.0566V34.6602H46.5703V35.791ZM49.9395 41.1172C49.0371 41.1172 48.3047 40.834 47.7422 40.2676C47.1836 39.6973 46.9043 38.9395 46.9043 37.9941V37.8184C46.9043 37.1855 47.0254 36.6211 47.2676 36.125C47.5137 35.625 47.8574 35.2363 48.2988 34.959C48.7402 34.6816 49.2324 34.543 49.7754 34.543C50.6387 34.543 51.3047 34.8184 51.7734 35.3691C52.2461 35.9199 52.4824 36.6992 52.4824 37.707V38.2812H48.3398C48.3828 38.8047 48.5566 39.2188 48.8613 39.5234C49.1699 39.8281 49.5566 39.9805 50.0215 39.9805C50.6738 39.9805 51.2051 39.7168 51.6152 39.1895L52.3828 39.9219C52.1289 40.3008 51.7891 40.5957 51.3633 40.8066C50.9414 41.0137 50.4668 41.1172 49.9395 41.1172ZM49.7695 35.6855C49.3789 35.6855 49.0625 35.8223 48.8203 36.0957C48.582 36.3691 48.4297 36.75 48.3633 37.2383H51.0762V37.1328C51.0449 36.6562 50.918 36.2969 50.6953 36.0547C50.4727 35.8086 50.1641 35.6855 49.7695 35.6855ZM55.8691 36.7461L57.0762 34.6602H58.6582L56.7188 37.7832L58.7227 41H57.1523L55.8867 38.832L54.627 41H53.0449L55.0488 37.7832L53.1152 34.6602H54.6855L55.8691 36.7461ZM64.998 41H63.5742V38.4395H61.1074V41H59.6836V34.6602H61.1074V37.3027H63.5742V34.6602H64.998V41ZM66.252 37.7715C66.252 37.1504 66.375 36.5918 66.6211 36.0957C66.8672 35.5957 67.2129 35.2129 67.6582 34.9473C68.1035 34.6777 68.6152 34.543 69.1934 34.543C70.0488 34.543 70.7422 34.8184 71.2734 35.3691C71.8086 35.9199 72.0977 36.6504 72.1406 37.5605L72.1465 37.8945C72.1465 38.5195 72.0254 39.0781 71.7832 39.5703C71.5449 40.0625 71.2012 40.4434 70.752 40.7129C70.3066 40.9824 69.791 41.1172 69.2051 41.1172C68.3105 41.1172 67.5938 40.8203 67.0547 40.2266C66.5195 39.6289 66.252 38.834 66.252 37.8418V37.7715ZM67.6758 37.8945C67.6758 38.5469 67.8105 39.0586 68.0801 39.4297C68.3496 39.7969 68.7246 39.9805 69.2051 39.9805C69.6855 39.9805 70.0586 39.793 70.3242 39.418C70.5938 39.043 70.7285 38.4941 70.7285 37.7715C70.7285 37.1309 70.5898 36.623 70.3125 36.248C70.0391 35.873 69.666 35.6855 69.1934 35.6855C68.7285 35.6855 68.3594 35.8711 68.0859 36.2422C67.8125 36.6094 67.6758 37.1602 67.6758 37.8945ZM78.6445 34.6602V41H77.2207V35.8086H75.4277L75.3105 38.0176C75.2363 39.0801 75.0312 39.8438 74.6953 40.3086C74.3633 40.7695 73.8535 41 73.166 41H72.7266L72.7207 39.8164L73.0137 39.7871C73.3262 39.7441 73.5527 39.5547 73.6934 39.2188C73.8379 38.8789 73.9297 38.2617 73.9688 37.3672L74.0859 34.6602H78.6445ZM79.8926 37.7715C79.8926 37.1504 80.0156 36.5918 80.2617 36.0957C80.5078 35.5957 80.8535 35.2129 81.2988 34.9473C81.7441 34.6777 82.2559 34.543 82.834 34.543C83.6895 34.543 84.3828 34.8184 84.9141 35.3691C85.4492 35.9199 85.7383 36.6504 85.7812 37.5605L85.7871 37.8945C85.7871 38.5195 85.666 39.0781 85.4238 39.5703C85.1855 40.0625 84.8418 40.4434 84.3926 40.7129C83.9473 40.9824 83.4316 41.1172 82.8457 41.1172C81.9512 41.1172 81.2344 40.8203 80.6953 40.2266C80.1602 39.6289 79.8926 38.834 79.8926 37.8418V37.7715ZM81.3164 37.8945C81.3164 38.5469 81.4512 39.0586 81.7207 39.4297C81.9902 39.7969 82.3652 39.9805 82.8457 39.9805C83.3262 39.9805 83.6992 39.793 83.9648 39.418C84.2344 39.043 84.3691 38.4941 84.3691 37.7715C84.3691 37.1309 84.2305 36.623 83.9531 36.248C83.6797 35.873 83.3066 35.6855 82.834 35.6855C82.3691 35.6855 82 35.8711 81.7266 36.2422C81.4531 36.6094 81.3164 37.1602 81.3164 37.8945ZM91.2129 35.8086H88.459V41H87.041V34.6602H91.2129V35.8086ZM95.9766 34.6602H97.3945V41H95.9766V36.7695L93.4922 41H92.0742V34.6602H93.4922V38.8906L95.9766 34.6602ZM102.867 34.6602H104.285V41H102.867V36.7695L100.383 41H98.9648V34.6602H100.383V38.8906L102.867 34.6602Z" fill="#788891"/>
</symbol><symbol id="logo" viewBox="0 0 52 52">
<path d="M32.0665 13.8665C33.1949 13.8665 34.1483 14.5936 34.5071 15.5998H43.4927C43.8515 14.5936 44.8048 13.8665 45.9332 13.8665C47.3667 13.8665 48.5332 15.033 48.5332 16.4664C48.5332 17.8999 47.3667 19.0664 45.9332 19.0664C44.8048 19.0664 43.8515 18.3392 43.4927 17.3331H34.5062C34.1474 18.3392 33.1941 19.0664 32.0657 19.0664C30.6322 19.0664 29.4657 17.8999 29.4657 16.4664C29.4657 15.033 30.6331 13.8665 32.0665 13.8665ZM45.9332 17.3331C46.4107 17.3331 46.7999 16.9448 46.7999 16.4664C46.7999 15.988 46.4107 15.5998 45.9332 15.5998C45.4557 15.5998 45.0665 15.988 45.0665 16.4664C45.0665 16.9448 45.4557 17.3331 45.9332 17.3331ZM32.0665 17.3331C32.5441 17.3331 32.9332 16.9448 32.9332 16.4664C32.9332 15.988 32.5441 15.5998 32.0665 15.5998C31.589 15.5998 31.1999 15.988 31.1999 16.4664C31.1999 16.9448 31.589 17.3331 32.0665 17.3331Z" fill="#00B2FF"/>
<path d="M25.1333 19.2259V13.8665C25.1333 13.636 25.2243 13.4158 25.3872 13.2538L28.8539 9.78716C29.0159 9.62423 29.2369 9.53323 29.4666 9.53323H32.2261C32.5849 8.52705 33.5382 7.79993 34.6666 7.79993C36.1001 7.79993 37.2666 8.96644 37.2666 10.3999C37.2666 11.8333 36.1001 12.9998 34.6666 12.9998C33.5382 12.9998 32.5849 12.2727 32.2261 11.2665H29.8254L26.8666 14.2253V19.2259C27.8728 19.5847 28.5999 20.538 28.5999 21.6664C28.5999 23.0998 27.4334 24.2663 25.9999 24.2663C24.5665 24.2663 23.3999 23.0998 23.3999 21.6664C23.3999 20.538 24.1271 19.5847 25.1333 19.2259ZM34.6666 11.2665C35.1441 11.2665 35.5333 10.8783 35.5333 10.3999C35.5333 9.92149 35.1441 9.53323 34.6666 9.53323C34.1891 9.53323 33.7999 9.92149 33.7999 10.3999C33.7999 10.8783 34.1891 11.2665 34.6666 11.2665ZM25.9999 22.533C26.4775 22.533 26.8666 22.1448 26.8666 21.6664C26.8666 21.188 26.4775 20.7997 25.9999 20.7997C25.5224 20.7997 25.1333 21.188 25.1333 21.6664C25.1333 22.1448 25.5224 22.533 25.9999 22.533Z" fill="#00B2FF"/>
<path d="M9.53333 22.533C9.93373 22.533 10.3081 22.6309 10.647 22.7938L12.1333 21.3075V12.9998C12.1333 12.7693 12.2243 12.5491 12.3873 12.3871L21.0609 3.7136C20.8979 3.37474 20.8 3.00035 20.8 2.59996C20.8 1.16651 21.9665 0 23.4 0C24.8335 0 26 1.16651 26 2.59996C26 4.0334 24.8335 5.19991 23.4 5.19991C22.9996 5.19991 22.6252 5.10198 22.2863 4.93905L13.8667 13.3586V21.6663C13.8667 21.8968 13.7757 22.117 13.6127 22.279L11.8725 24.0193C12.0354 24.3581 12.1333 24.7325 12.1333 25.1329C12.1333 26.5664 10.9668 27.7329 9.53333 27.7329C8.09986 27.7329 6.93333 26.5664 6.93333 25.1329C6.93333 23.6995 8.09986 22.533 9.53333 22.533ZM23.4 3.46661C23.8775 3.46661 24.2667 3.07835 24.2667 2.59996C24.2667 2.12156 23.8775 1.7333 23.4 1.7333C22.9225 1.7333 22.5333 2.12156 22.5333 2.59996C22.5333 3.07835 22.9225 3.46661 23.4 3.46661ZM9.53333 25.9996C10.0109 25.9996 10.4 25.6113 10.4 25.1329C10.4 24.6545 10.0109 24.2663 9.53333 24.2663C9.0558 24.2663 8.66667 24.6545 8.66667 25.1329C8.66667 25.6113 9.0558 25.9996 9.53333 25.9996Z" fill="#00B2FF"/>
<path d="M1.73353 12.2926V8.66652C1.73353 8.43599 1.82453 8.21586 1.98746 8.0538L8.05413 1.98723C8.21619 1.8243 8.43719 1.7333 8.66686 1.7333H13.1597C13.5185 0.727121 14.4718 0 15.6002 0C17.0337 0 18.2002 1.16651 18.2002 2.59996C18.2002 4.0334 17.0337 5.19991 15.6002 5.19991C14.4718 5.19991 13.5185 4.47279 13.1597 3.46661H9.02566L3.46686 9.02532V12.2926C4.47306 12.6514 5.2002 13.6047 5.2002 14.7331C5.2002 16.1665 4.03366 17.333 2.60019 17.333C1.16673 17.333 0.00019455 16.1665 0.00019455 14.7331C0.00019455 13.6047 0.727329 12.6514 1.73353 12.2926ZM15.6002 3.46661C16.0777 3.46661 16.4669 3.07835 16.4669 2.59996C16.4669 2.12156 16.0777 1.7333 15.6002 1.7333C15.1227 1.7333 14.7335 2.12156 14.7335 2.59996C14.7335 3.07835 15.1227 3.46661 15.6002 3.46661ZM2.60019 15.5997C3.07773 15.5997 3.46686 15.2115 3.46686 14.7331C3.46686 14.2547 3.07773 13.8664 2.60019 13.8664C2.12266 13.8664 1.73353 14.2547 1.73353 14.7331C1.73353 15.2115 2.12266 15.5997 2.60019 15.5997Z" fill="#00B2FF"/>
<path d="M13.866 46.9595V34.5066C12.8607 34.1478 12.1335 33.1945 12.1335 32.0661C12.1335 30.6327 13.3001 29.4661 14.7335 29.4661C15.8619 29.4661 16.8153 30.1933 17.1741 31.1995H26.1597C26.5185 30.1933 27.4718 29.4661 28.6002 29.4661C29.7286 29.4661 30.6819 30.1933 31.0407 31.1995H36.0414L39.2611 27.9798C39.0981 27.641 39.0002 27.2666 39.0002 26.8662C39.0002 25.4327 40.1667 24.2662 41.6002 24.2662C43.0337 24.2662 44.2002 25.4327 44.2002 26.8662C44.2002 28.2996 43.0337 29.4661 41.6002 29.4661C41.1998 29.4661 40.8254 29.3682 40.4865 29.2053L37.0129 32.6788C36.8509 32.8418 36.6299 32.9328 36.4002 32.9328H31.0407C30.6819 33.9389 29.7286 34.6661 28.6002 34.6661C27.4718 34.6661 26.5185 33.9389 26.1597 32.9328H17.1732C16.9115 33.6668 16.3334 34.2449 15.5993 34.5066V46.9595C16.6055 47.3183 17.3327 48.2716 17.3327 49.4C17.3327 50.8335 16.1661 52 14.7327 52C13.2992 52 12.1327 50.8335 12.1327 49.4C12.1327 48.2716 12.8598 47.3183 13.866 46.9595ZM41.6002 27.7328C42.0777 27.7328 42.4669 27.3446 42.4669 26.8662C42.4669 26.3878 42.0777 25.9995 41.6002 25.9995C41.1227 25.9995 40.7335 26.3878 40.7335 26.8662C40.7335 27.3446 41.1227 27.7328 41.6002 27.7328ZM28.6002 32.9328C29.0777 32.9328 29.4669 32.5445 29.4669 32.0661C29.4669 31.5877 29.0777 31.1995 28.6002 31.1995C28.1227 31.1995 27.7335 31.5877 27.7335 32.0661C27.7335 32.5445 28.1227 32.9328 28.6002 32.9328ZM14.7335 50.2658C15.2111 50.2658 15.6002 49.8775 15.6002 49.3991C15.6002 48.9208 15.2111 48.5325 14.7335 48.5325C14.256 48.5325 13.8669 48.9208 13.8669 49.3991C13.8669 49.8775 14.256 50.2658 14.7335 50.2658ZM14.7335 32.9328C15.2111 32.9328 15.6002 32.5445 15.6002 32.0661C15.6002 31.5877 15.2111 31.1995 14.7335 31.1995C14.256 31.1995 13.8669 31.5877 13.8669 32.0661C13.8669 32.5445 14.256 32.9328 14.7335 32.9328Z" fill="#00B2FF"/>
<path d="M18.2002 17.4925V14.7331C18.2002 14.5026 18.2912 14.2824 18.4542 14.1204L28.8611 3.7136C28.6982 3.37474 28.6002 3.00035 28.6002 2.59996C28.6002 1.16651 29.7668 0 31.2002 0C32.3286 0 33.282 0.727121 33.6408 1.7333H37.2669C37.7453 1.7333 38.1336 2.1207 38.1336 2.59996V4.84112L41.3532 8.06073C41.6921 7.8978 42.0665 7.79987 42.4669 7.79987C43.9004 7.79987 45.0669 8.96638 45.0669 10.3998C45.0669 11.8333 43.9004 12.9998 42.4669 12.9998C41.0334 12.9998 39.8669 11.8333 39.8669 10.3998C39.8669 9.99943 39.9648 9.62504 40.1278 9.28618L36.6542 5.81264C36.4912 5.65057 36.4002 5.43044 36.4002 5.19991V3.46661H33.6408C33.282 4.47279 32.3286 5.19991 31.2002 5.19991C30.7998 5.19991 30.4254 5.10198 30.0866 4.93905L19.9336 15.0919V17.4925C20.9398 17.8513 21.6669 18.8046 21.6669 19.933C21.6669 21.3664 20.5004 22.533 19.0669 22.533C17.6334 22.533 16.4669 21.3664 16.4669 19.933C16.4669 18.8046 17.194 17.8513 18.2002 17.4925ZM42.4669 11.2665C42.9444 11.2665 43.3336 10.8782 43.3336 10.3998C43.3336 9.92143 42.9444 9.53317 42.4669 9.53317C41.9894 9.53317 41.6002 9.92143 41.6002 10.3998C41.6002 10.8782 41.9894 11.2665 42.4669 11.2665ZM31.2002 3.46661C31.6778 3.46661 32.0669 3.07835 32.0669 2.59996C32.0669 2.12156 31.6778 1.7333 31.2002 1.7333C30.7227 1.7333 30.3336 2.12156 30.3336 2.59996C30.3336 3.07835 30.7227 3.46661 31.2002 3.46661ZM19.0669 20.7997C19.5444 20.7997 19.9336 20.4114 19.9336 19.933C19.9336 19.4546 19.5444 19.0663 19.0669 19.0663C18.5894 19.0663 18.2002 19.4546 18.2002 19.933C18.2002 20.4114 18.5894 20.7997 19.0669 20.7997Z" fill="#00B2FF"/>
<path d="M20.8 24.2663C21.9284 24.2663 22.8817 24.9934 23.2405 25.9996H33.4412L38.3873 21.0536C38.5493 20.8906 38.7703 20.7997 39 20.7997H48.1745L50.2667 18.7076V11.6253L43.5803 4.93905C43.2415 5.10198 42.8671 5.19991 42.4667 5.19991C41.0332 5.19991 39.8667 4.0334 39.8667 2.59996C39.8667 1.16651 41.0332 0 42.4667 0C43.9001 0 45.0667 1.16651 45.0667 2.59996C45.0667 3.00035 44.9687 3.37474 44.8058 3.7136L51.7461 10.6538C51.909 10.8158 52 11.0359 52 11.2665V19.0663C52 19.2969 51.909 19.517 51.7461 19.6791L49.1461 22.279C48.984 22.442 48.763 22.533 48.5333 22.533H39.3588L34.4127 27.4789C34.2507 27.6419 34.0297 27.7329 33.8 27.7329H23.2405C22.8817 28.7391 21.9284 29.4662 20.8 29.4662C19.3665 29.4662 18.2 28.2997 18.2 26.8662C18.2 25.4328 19.3665 24.2663 20.8 24.2663ZM42.4667 1.7333C41.9891 1.7333 41.6 2.12156 41.6 2.59996C41.6 3.07835 41.9891 3.46661 42.4667 3.46661C42.9442 3.46661 43.3333 3.07835 43.3333 2.59996C43.3333 2.12156 42.9442 1.7333 42.4667 1.7333ZM20.8 27.7329C21.2775 27.7329 21.6667 27.3446 21.6667 26.8662C21.6667 26.3878 21.2775 25.9996 20.8 25.9996C20.3225 25.9996 19.9333 26.3878 19.9333 26.8662C19.9333 27.3446 20.3225 27.7329 20.8 27.7329Z" fill="#00B2FF"/>
<path d="M2.59997 20.7997C3.00037 20.7997 3.37477 20.8976 3.71363 21.0606L6.9333 17.841V12.8404C5.9271 12.4816 5.19997 11.5283 5.19997 10.3999C5.19997 8.96644 6.3665 7.79993 7.79997 7.79993C9.23343 7.79993 10.4 8.96644 10.4 10.3999C10.4 11.5283 9.67283 12.4816 8.66663 12.8404V18.1998C8.66663 18.4303 8.57563 18.6504 8.4127 18.8125L4.9391 22.286C5.10204 22.6249 5.19997 22.9993 5.19997 23.3997C5.19997 24.528 4.47283 25.4814 3.46663 25.8402V26.5075L10.146 33.1868C10.309 33.3488 10.4 33.569 10.4 33.7995V34.8256C11.4062 35.1844 12.1333 36.1377 12.1333 37.2661C12.1333 38.3945 11.4062 39.3478 10.4 39.7066V41.7597C11.4062 42.1185 12.1333 43.0718 12.1333 44.2002C12.1333 45.6336 10.9668 46.8001 9.5333 46.8001C8.09983 46.8001 6.9333 45.6336 6.9333 44.2002C6.9333 43.0718 7.66043 42.1185 8.66663 41.7597V39.7066C7.66043 39.3478 6.9333 38.3945 6.9333 37.2661C6.9333 36.1377 7.66043 35.1844 8.66663 34.8256V34.1583L1.98723 27.479C1.8243 27.3169 1.7333 27.0968 1.7333 26.8663V25.8402C0.7271 25.4814 -3.24249e-05 24.528 -3.24249e-05 23.3997C-3.24249e-05 21.9662 1.1665 20.7997 2.59997 20.7997ZM7.79997 11.2665C8.2775 11.2665 8.66663 10.8783 8.66663 10.3999C8.66663 9.92149 8.2775 9.53323 7.79997 9.53323C7.32243 9.53323 6.9333 9.92149 6.9333 10.3999C6.9333 10.8783 7.32243 11.2665 7.79997 11.2665ZM9.5333 45.066C10.0108 45.066 10.4 44.6777 10.4 44.1993C10.4 43.7209 10.0108 43.3327 9.5333 43.3327C9.05577 43.3327 8.66663 43.7209 8.66663 44.1993C8.66663 44.6777 9.05577 45.066 9.5333 45.066ZM9.5333 38.1328C10.0108 38.1328 10.4 37.7445 10.4 37.2661C10.4 36.7877 10.0108 36.3995 9.5333 36.3995C9.05577 36.3995 8.66663 36.7877 8.66663 37.2661C8.66663 37.7445 9.05577 38.1328 9.5333 38.1328ZM2.59997 24.2663C3.0775 24.2663 3.46663 23.8781 3.46663 23.3997C3.46663 22.9213 3.0775 22.533 2.59997 22.533C2.12243 22.533 1.7333 22.9213 1.7333 23.3997C1.7333 23.8781 2.12243 24.2663 2.59997 24.2663Z" fill="#00B2FF"/>
</symbol></svg>